<svg height="415pt" viewBox="-7 0 415 415.8" width="415pt" xmlns="http://www.w3.org/2000/svg"><path d="m80.398438 240.238281 120 73.332031 120-73.332031 80-48.886719v180c.003906 24.542969-19.894532 44.445313-44.4375 44.449219h-311.121094c-24.546875-.003906-44.441406-19.90625-44.441406-44.449219v-180zm0 0" fill="#e48e66"/><path d="m400.398438 176.789062v14.5625l-80 48.886719v-123.199219l5.082031 2.359376 65.347656 40.332031c5.945313 3.632812 9.570313 10.09375 9.570313 17.058593zm0 0" fill="#af593c"/><path d="m320.398438 117.039062v123.199219l-120 73.332031-120-73.332031v-208.519531c0-17.515625 14.195312-31.71484375 31.710937-31.71875h120.96875l1.613281.160156v53.839844c-.007812 17.515625 14.191406 31.71875 31.707032 31.71875h45.191406l8.808594 9.820312zm-50.070313 40.859376c0-38.660157-31.339844-70-70-70-38.65625 0-70 31.339843-70 70 0 38.660156 31.34375 70 70 70 38.660156 0 70-31.339844 70-70zm0 0" fill="#f8ec7d"/><path d="m234.859375.179688 76.730469 85.539062h-45.191406c-17.515626 0-31.714844-14.203125-31.707032-31.71875v-53.839844zm0 0" fill="#6fe3ff"/><path d="m270.328125 157.898438c0 38.660156-31.339844 70-70 70-38.65625 0-70-31.339844-70-70 0-38.660157 31.34375-70 70-70 38.660156 0 70 31.339843 70 70zm0 0" fill="#6fe3ff"/><path d="m80.398438 117.039062v123.199219l-80-48.886719v-14.5625c.003906-6.964843 3.628906-13.425781 9.570312-17.058593zm0 0" fill="#af593c"/><path d="m190 179.640625c-2.050781.003906-3.996094-.894531-5.328125-2.453125l-15.558594-18.222656c-1.652343-1.898438-2.15625-4.535156-1.324219-6.910156.832032-2.375 2.875-4.121094 5.351563-4.570313s5.003906.460937 6.617187 2.390625l11.125 13.023438 30.929688-25.164063c1.9375-1.597656 4.582031-2.035156 6.929688-1.144531 2.347656.890625 4.039062 2.96875 4.433593 5.449218.394531 2.480469-.570312 4.980469-2.527343 6.554688l-36.230469 29.480469c-1.246094 1.015625-2.808594 1.570312-4.417969 1.566406zm0 0" fill="#2561a1"/></svg>