<svg id="Layer_35" enable-background="new 0 0 64 64" height="512" viewBox="0 0 64 64" width="512" xmlns="http://www.w3.org/2000/svg" xmlns:xlink="http://www.w3.org/1999/xlink"><linearGradient id="SVGID_1_" gradientUnits="userSpaceOnUse" x1="32.04" x2="32.04" y1="63" y2="1"><stop offset="0" stop-color="#9f2fff"/><stop offset="1" stop-color="#0bb1d3"/></linearGradient><path d="m31.387 28h4.231l-4.724 9.447-1.789-.895 3.277-6.552h-3.769l2.438-7.316 1.897.633zm31.613-11c0 3.309-2.691 6-6 6h-10.535c-1.207 1.457-2.775 2.602-4.574 3.284l8.445 28.716h-2.336c-1.001 0-1.449.335-2.069.8-.713.534-1.601 1.2-3.269 1.2s-2.555-.665-3.269-1.2c-.137-.102-.266-.197-.394-.285v3.53c0 2.18-1.774 3.954-3.954 3.954h-.001c-1.147 0-2.14-.411-2.886-1.158-.055-.055-.108-.111-.159-.168-.725.814-1.78 1.327-2.953 1.327-2.27 0-4.044-1.774-4.044-3.954v-3.538c-.132.09-.265.187-.405.292-.713.535-1.6 1.2-3.266 1.2s-2.553-.666-3.265-1.2c-.62-.465-1.066-.8-2.066-.8h-2.299l3.862-14.589c-.941-.628-1.563-1.698-1.563-2.911v-7.5c0-.338.021-.67.051-1h-8.97c-3.309 0-6-2.691-6-6 0-3.035 2.267-5.544 5.195-5.94.87-3.024 3.698-5.143 6.923-5.057.929-4.627 4.979-8.003 9.801-8.003 2.014 0 3.99.618 5.644 1.748 1.022-.475 2.156-.748 3.356-.748 1.997 0 3.821.74 5.224 1.955 1.864-3.619 5.609-5.955 9.776-5.955 5.756 0 10.485 4.446 10.954 10.083 2.855.459 5.046 2.934 5.046 5.917zm-31-10c-3.309 0-6 2.691-6 6s2.691 6 6 6 6-2.691 6-6-2.691-6-6-6zm-5.259 12.013c-1.676-1.467-2.741-3.616-2.741-6.013 0-2.417 1.082-4.582 2.781-6.05-1.153-.622-2.437-.95-3.781-.95-4.129 0-7.551 3.094-7.959 7.196l-.107 1.072-1.061-.186c-.314-.055-.599-.082-.873-.082-2.064 0-3.894 1.279-4.641 3.14 2.696.588 4.722 2.99 4.722 5.86h-2c0-2.206-1.794-4-4-4s-4 1.794-4 4 1.794 4 4 4h9.346c1.287-4.53 5.404-7.872 10.314-7.987zm-1.739 34.26-.002-26.102c-1.164.413-2 1.525-2 2.829v7.5c0 1.93-1.57 3.5-3.5 3.5-.008 0-.016-.002-.024-.002l-3.179 12.01c1.477.074 2.299.691 2.968 1.193.619.464 1.066.8 2.065.8 1 0 1.447-.335 2.066-.8.42-.316.919-.684 1.606-.928zm14.962-26.452c-.317.057-.638.104-.964.134v26.322c.68.245 1.177.61 1.594.922.62.465 1.068.8 2.069.8s1.449-.335 2.069-.8c.664-.498 1.479-1.109 2.934-1.19zm7.036-10.821v-7.5c0-.827-.673-1.5-1.5-1.5s-1.5.673-1.5 1.5v6.5c0 3.309-2.691 6-6 6h-11c-4.962 0-9 4.038-9 9v7.5c0 .827.673 1.5 1.5 1.5s1.5-.673 1.5-1.5v-7.5c0-2.757 2.243-5 5-5h1l.002 34.046c0 1.078.876 1.954 1.954 1.954 1.168 0 2.044-.877 2.044-1.955v-18.045h2v18.045c0 .522.203 1.013.572 1.382s.859.572 1.381.572c1.17 0 2.046-.876 2.046-1.954v-34.045h1c4.963 0 9.001-4.038 9.001-9zm14 1c0-2.206-1.794-4-4-4s-4 1.794-4 4h-2c0-2.951 2.143-5.406 4.954-5.903-.454-4.54-4.296-8.097-8.954-8.097-3.679 0-6.954 2.227-8.329 5.595.838 1.264 1.329 2.778 1.329 4.405 0 2.39-1.059 4.533-2.726 6h.726c2.206 0 4-1.794 4-4v-6.5c0-1.93 1.57-3.5 3.5-3.5s3.5 1.57 3.5 3.5v7.5c0 1.799-.435 3.499-1.205 5h9.205c2.206 0 4-1.794 4-4zm-10 10h-2v2h2zm-5 5h2v-2h-2zm3 3h2v-2h-2zm3-3h2v-2h-2zm-43 5h-2v2h2zm-3 3h-2v2h2zm1 5h2v-2h-2zm5-5h-2v2h2zm43 4h-2v2h2zm-3 3h-2v2h2zm1 5h2v-2h-2zm3-3h2v-2h-2zm4-14h-2v2h2zm-5 5h2v-2h-2zm3 3h2v-2h-2zm3-3h2v-2h-2z" fill="url(#SVGID_1_)"/></svg>