<svg height="60" viewBox="0 0 60 60" width="60" xmlns="http://www.w3.org/2000/svg"><g id="Page-1" fill="none" fill-rule="evenodd"><g id="086---Edit-File" fill-rule="nonzero"><path id="Shape" d="m45 15v-10c0-2.209139-1.790861-4-4-4h-35l-5 23v31c0 2.209139 1.790861 4 4 4h36c2.209139 0 4-1.790861 4-4z" fill="#02a9f4"/><path id="Shape" d="m41 1h-3c2.209139 0 4 1.790861 4 4v50c0 2.209139-1.790861 4-4 4h3c2.209139 0 4-1.790861 4-4v-50c0-2.209139-1.790861-4-4-4z" fill="#0377bc"/><path id="Shape" d="m6 1 7.341 6.007c.910431.74520829 1.4466149 1.85344064 1.4658808 3.0298116.0192658 1.1763711-.4803406 2.3015669-1.3658808 3.0761884l-12.441 10.887z" fill="#3f51b5"/><path id="Shape" d="m5 29c-.55228475 0-1-.4477153-1-1v-2c0-.5522847.44771525-1 1-1s1 .4477153 1 1v2c0 .5522847-.44771525 1-1 1z" fill="#f5f5f5"/><path id="Shape" d="m5 51c-.55228475 0-1-.4477153-1-1v-18c0-.5522847.44771525-1 1-1s1 .4477153 1 1v18c0 .5522847-.44771525 1-1 1z" fill="#f5f5f5"/><path id="Shape" d="m49.643 23.431-7.78 7.77-3.54 3.54-9.18 9.19h-.01l-3.531-3.54 20.5-20.5z" fill="#ff9801"/><path id="Shape" d="m53.173 26.961-20.5 20.5-3.53-3.53 9.18-9.19 3.54-3.54 7.78-7.77z" fill="#ff5722"/><path id="Shape" d="m32.673 47.461-9.261 3.47c-.3652478.1403889-.7789156.0524711-1.0554978-.2243272-.2765821-.2767984-.3641765-.6905348-.2235022-1.0556728l3.469-9.26 3.531 3.54h.01z" fill="#ffe0b2"/><path id="Shape" d="m29.143 43.931h-.01l-3.533-3.54-.819 2.187 1.35 1.353h.01l.234.235c.7210978.7212593 1.0263672 1.7594688.8104321 2.7562482-.2159352.9967793-.9234934 1.8155771-1.8784321 2.1737518l-3.2 1.2c.0788071.2633026.2639363.4817629.5107429.6026982.2468066.1209352.532889.1333686.7892571.0343018l9.261-3.47z" fill="#dfc49c"/><path id="Shape" d="m56.003 24.131-2.83 2.83-3.53-3.53-3.541-3.54 2.831-2.83z" fill="#9e9e9e"/><path id="Shape" d="m58.123 22.011-2.123 2.12-7.07-7.07 2.12-2.12c1.1711552-1.1691478 3.0678448-1.1691478 4.239 0l2.831 2.83c1.1706427 1.1704423 1.1719852 3.0679023.003 4.24z" fill="#e91e63"/><path id="Shape" d="m58.123 17.771-2.831-2.83c-.9617985-.9570772-2.4472338-1.1471177-3.619-.463.2255848.126766.433673.282412.619.463l2.831 2.83c1.1698135 1.1712702 1.1698135 3.0687298 0 4.24l-.62.62 1.5 1.5 2.12-2.12c1.1698135-1.1712702 1.1698135-3.0687298 0-4.24z" fill="#ad1457"/><g fill="#000"><path id="Shape" d="m5 60h36c2.7600532-.0033061 4.9966939-2.2399468 5-5v-14c0-.5522847-.4477153-1-1-1s-1 .4477153-1 1v14c0 1.6568542-1.3431458 3-3 3h-36c-1.65685425 0-3-1.3431458-3-3v-30.546l12.1-10.589c1.106982-.9684242 1.7314278-2.3751201 1.7071522-3.8457204-.0242755-1.4706003-.6948099-2.85591959-1.8331522-3.7872796l-5.174-4.232h32.2c1.6568542 0 3 1.34314575 3 3v10c0 .5522847.4477153 1 1 1s1-.4477153 1-1v-10c-.0033061-2.76005315-2.2399468-4.99669388-5-5h-35c-.47056165-.00044595-.87777054.32723646-.978.787l-5 23c-.01429372.0701078-.02166247.1414507-.022.213v31c.00330612 2.7600532 2.23994685 4.9966939 5 5zm1.63-57.192 6.078 4.972c.6827753.55875825 1.0849797 1.38973545 1.0996211 2.2718797.0146414.8821443-.3597647 1.7260113-1.0236211 2.3071203l-10.164 8.894z"/><path id="Shape" d="m22 11c0-.5522847-.4477153-1-1-1h-2c-.5522847 0-1 .4477153-1 1s.4477153 1 1 1h2c.5522847 0 1-.4477153 1-1z"/><path id="Shape" d="m39 10h-14c-.5522847 0-1 .4477153-1 1s.4477153 1 1 1h14c.5522847 0 1-.4477153 1-1s-.4477153-1-1-1z"/><path id="Shape" d="m15 16c-.5522847 0-1 .4477153-1 1s.4477153 1 1 1h4c.5522847 0 1-.4477153 1-1s-.4477153-1-1-1z"/><path id="Shape" d="m23 18h16c.5522847 0 1-.4477153 1-1s-.4477153-1-1-1h-16c-.5522847 0-1 .4477153-1 1s.4477153 1 1 1z"/><path id="Shape" d="m56 14.172c-.7501514-.7501901-1.7675983-1.1716458-2.8285-1.1716458s-2.0783486.4214557-2.8285 1.1716458l-2.121 2.121c-1.035 1.034-22.8 22.8-23.34 23.344-.1375067.1724463-.2428527.3682341-.311.578l-3.384 9.022c-.0859488.2447568-.1233136.5039327-.11.763h-6.077c-.5522847 0-1 .4477153-1 1s.4477153 1 1 1h8c.4181182-.0653049.8259062-.1849854 1.213-.356l8.455-3.171c.2545773-.0736967.4923456-.1963171.7-.361l20.511-20.506 2.828-2.828 2.121-2.121c.7501901-.7501514 1.1716458-1.7675983 1.1716458-2.8285s-.4214557-2.0783486-1.1716458-2.8285zm-30.014 27.968 4.874 4.874-7.8 2.925zm6.679 3.851-2.121-2.121 8.485-8.485c.3789722-.3923789.3735524-1.0160848-.0121814-1.4018186s-1.0094397-.3911536-1.4018186-.0121814l-8.485 8.485-2.121-2.121 19.091-19.093 2.121 2.122-7.071 7.072c-.2599566.2510745-.3642126.6228779-.2726972.9725073.0915155.3496295.3645604.6226744.7141899.7141899.3496294.0915154.7214328-.0127406.9725073-.2726972l7.072-7.072 2.122 2.122zm20.507-20.506-5.657-5.657 1.414-1.414 5.657 5.657zm4.242-4.242-1.414 1.414-5.657-5.657 1.414-1.414c.375096-.375248.8839266-.5860729 1.4145-.5860729s1.039404.2108249 1.4145.5860729l2.828 2.828c.375248.375096.5860729.8839266.5860729 1.4145s-.2108249 1.039404-.5860729 1.4145z"/><path id="Shape" d="m9 50c-.55228475 0-1 .4477153-1 1s.44771525 1 1 1h2c.5522847 0 1-.4477153 1-1s-.4477153-1-1-1z"/></g></g></g></svg>