<svg id="Layer_1" enable-background="new 0 0 512 512" height="512" viewBox="0 0 512 512" width="512" xmlns="http://www.w3.org/2000/svg"><g><g><path d="m246.393 275.161-139.017-40.186-8.657 6.788v62.451c0 10.2 4.984 19.742 13.34 25.591 18.259 12.782 58.36 31.026 138.512 31.026 80.154 0 120.263-18.246 138.528-31.027 8.358-5.849 13.344-15.392 13.344-25.594v-59.314l-9.779-6.464c-57.299 16.564-104.872 30.316-127.064 36.731-6.277 1.814-12.931 1.812-19.207-.002z" fill="#2d4456"/><path d="m480.982 322.516c-4.276 0-7.742-3.466-7.742-7.742v-128.432c0-4.276 3.466-7.742 7.742-7.742s7.742 3.466 7.742 7.742v128.432c0 4.276-3.466 7.742-7.742 7.742z" fill="#ffbe7c"/><path d="m98.719 223.182v18.58l147.674 42.689c6.276 1.815 12.938 1.815 19.215 0l136.835-39.555v-18.581z" fill="#253847"/><path d="m250.57 345.01c-123.365 0-151.852-43.221-151.852-43.221v39.586c0 10.2 4.984 19.742 13.34 25.591 18.259 12.782 58.36 31.026 138.512 31.026 80.154 0 120.264-18.246 138.528-31.027 8.358-5.849 13.344-15.392 13.344-25.594v-39.582s-28.507 43.221-151.872 43.221z" fill="#86dcff"/><path d="m389.098 357.675c-18.265 12.782-58.374 31.028-138.528 31.028-80.151 0-120.252-18.244-138.512-31.026-8.356-5.85-13.34-15.391-13.34-25.591v18.581c0 10.2 4.984 19.742 13.34 25.591 18.259 12.782 58.36 31.026 138.512 31.026 80.154 0 120.263-18.245 138.528-31.027 8.358-5.849 13.344-15.392 13.344-25.594v-18.581c0 10.201-4.985 19.743-13.344 25.593z" fill="#56caed"/><path d="m8.33 174.896 238.063-68.818c6.276-1.814 12.938-1.814 19.215 0l238.063 68.818c11.106 3.21 11.106 18.947 0 22.157l-238.063 68.818c-6.276 1.814-12.938 1.814-19.215 0l-238.063-68.818c-11.106-3.211-11.106-18.947 0-22.157z" fill="#405b6c"/></g></g></svg>