<svg id="Layer_1" enable-background="new 0 0 512 512" height="512" viewBox="0 0 512 512" width="512" xmlns="http://www.w3.org/2000/svg"><g><g><path d="m391.744 207.667c17.123 2.398 37.778 8.499 52.54 23.261 18.4 18.4 23.348 45.961 24.435 64.417.678 11.509-14.6 15.1-14.6 15.1s-36.205 5.222-66.079-24.652c-13.754-13.754-23.352-27.883-26.079-44.245z" fill="#2d4456"/><path d="m384.678 271.61c29.874 29.874 83.895 24.289 83.895 24.289s.044-.436.104-1.238c.409 6.462.342 11.861.196 15.441-.111 2.73-2.303 4.91-5.033 5.022-13.81.563-54.629-.056-79.163-24.59-13.754-13.754-19.989-32.624-22.716-48.987 1.522-.15 3.012-.406 4.467-.755 3.694 11.037 9.415 21.983 18.25 30.818z" fill="#253847"/><path d="m395.84 502.538h-279.68v-56.163c0-43.976 4.26-101.461 39.073-123.051 18.717-11.608 40.796-18.31 64.44-18.31h72.654c23.644 0 45.723 6.702 64.44 18.31 34.813 21.59 39.073 69.613 39.073 113.589z" fill="#ffcf4d"/><path d="m102.492 512h307.016c2.903 0 5.257-2.353 5.257-5.257v-13.667h-317.53v13.667c0 2.904 2.354 5.257 5.257 5.257z" fill="#ffb629"/><path d="m111.622 366.382c6.998-5.319 17.134-2.603 20.536 5.503 2.337 5.569 8.101 8.897 14.092 8.136 8.72-1.107 16.14 6.313 15.033 15.033-.76 5.992 2.567 11.755 8.136 14.092 8.105 3.402 10.821 13.537 5.502 20.536-3.198 4.208-3.597 9.829-1.199 14.39.343.652 3.802 9.555-4.303 12.956-5.569 2.337-8.897 8.101-8.136 14.093 1.107 8.72-6.313 16.14-15.033 15.033-5.992-.76-11.755 2.567-14.092 8.136-3.402 8.105-13.537 10.821-20.536 5.503-4.809-3.654-11.464-3.654-16.273 0-6.998 5.319-17.134 2.603-20.536-5.503-2.337-5.569-8.101-8.897-14.093-8.136-8.72 1.107-16.14-6.313-15.033-15.033.76-5.992-2.567-11.755-8.136-14.093-8.105-3.402-4.802-12.064-4.507-12.583 2.622-4.624 2.29-10.44-.995-14.763-5.319-6.998-2.603-17.134 5.503-20.536 5.569-2.337 8.897-8.101 8.136-14.092-1.107-8.72 6.313-16.14 15.033-15.033 5.992.76 11.755-2.567 14.093-8.136 3.401-8.105 13.537-10.821 20.536-5.503 4.809 3.654 11.464 3.654 16.272 0z" fill="#ff5876"/><g><g><path d="m173.937 444.44c-1.232 1.293-2.736 2.379-4.517 3.126-5.569 2.337-8.897 8.101-8.136 14.093 1.107 8.72-6.313 16.14-15.033 15.033-5.992-.76-11.755 2.567-14.092 8.136-3.402 8.105-13.537 10.821-20.536 5.503-4.809-3.655-11.464-3.655-16.273 0-6.998 5.318-17.134 2.603-20.536-5.503-2.337-5.569-8.101-8.897-14.093-8.136-8.72 1.107-16.14-6.313-15.033-15.033.76-5.992-2.567-11.755-8.136-14.093-1.781-.747-3.284-1.833-4.517-3.126-.295.52-.616 1.029-.986 1.515-5.319 6.998-2.603 17.134 5.503 20.536 5.569 2.337 8.897 8.101 8.136 14.092-1.107 8.72 6.313 16.14 15.033 15.033 5.992-.76 11.755 2.567 14.093 8.136 3.401 8.105 13.537 10.821 20.536 5.503 4.809-3.655 11.464-3.655 16.273 0 6.998 5.318 17.134 2.603 20.536-5.503 2.337-5.569 8.101-8.897 14.092-8.136 8.72 1.107 16.14-6.313 15.033-15.033-.76-5.992 2.567-11.755 8.136-14.092 8.105-3.401 10.821-13.537 5.502-20.536-.369-.486-.69-.995-.985-1.515z" fill="#e6485d"/></g></g><g fill="#ffe0cc"><path d="m294.752 305.044-34.318 53.901c-2.066 3.245-6.803 3.245-8.868 0l-34.317-53.901z"/><path d="m132.158 371.884c2.337 5.569 8.101 8.897 14.092 8.137 8.72-1.107 16.14 6.313 15.033 15.033l7.773-34.702-13.82-37.021c-16.646 10.323-30.61 24.539-40.674 41.358 6.64-2.797 14.647.169 17.596 7.195z"/><path d="m350.716 395.054-7.773-34.702 13.82-37.021c16.646 10.323 30.61 24.539 40.674 41.358z"/></g><path d="m120.256 207.667c-17.123 2.398-37.779 8.499-52.541 23.261-18.4 18.4-23.348 45.961-24.435 64.417-.677 11.509 14.6 15.1 14.6 15.1s36.205 5.222 66.079-24.652c13.754-13.754 23.352-27.883 26.079-44.245z" fill="#2d4456"/><path d="m127.322 271.61c-29.874 29.874-83.895 24.289-83.895 24.289s-.045-.436-.104-1.238c-.409 6.462-.342 11.861-.196 15.441.111 2.73 2.303 4.91 5.033 5.022 13.81.563 54.629-.056 79.163-24.59 13.754-13.754 19.989-32.624 22.716-48.987-1.522-.15-3.013-.406-4.467-.755-3.694 11.037-9.415 21.983-18.25 30.818z" fill="#253847"/><path d="m120.798 202.542c-32.759-89.328 14.245-202.542 135.202-202.542s167.962 113.214 135.202 202.542z" fill="#2d4456"/><path d="m170.325 205.894-13.576-30.196c-1.125-.115-2.266-.175-3.422-.175-14.989 0-27.65 9.964-31.721 23.63-.893 2.999 4.103 33.097 31.721 33.097l3.673-9.671z" fill="#ffc4ad"/><path d="m153.326 222.787c-14.989 0-27.643-9.967-31.714-23.632-.893 2.999-1.38 6.173-1.38 9.462 0 18.277 14.817 33.094 33.094 33.094 2.312 0 4.569-.239 6.747-.69l5.951-10.479-9.018-7.964c-1.208.135-2.435.209-3.68.209z" fill="#ffb69f"/><path d="m341.676 205.894 13.576-30.196c1.125-.115 2.267-.175 3.422-.175 14.989 0 27.65 9.964 31.721 23.63.893 2.999-4.103 33.097-31.721 33.097l-3.674-9.671z" fill="#ffc4ad"/><path d="m358.674 222.787c14.989 0 27.643-9.967 31.714-23.632.893 2.999 1.38 6.173 1.38 9.462 0 18.277-14.817 33.094-33.094 33.094-2.312 0-4.569-.239-6.747-.69l-5.951-10.479 9.018-7.964c1.208.135 2.435.209 3.68.209z" fill="#ffb69f"/><path d="m307.363 114.286c5.74 12.592 19.595 36.861 44.881 48.17 1.897.849 3.13 2.72 3.13 4.799v28.923 9.462c0 54.882-44.491 99.373-99.373 99.373-54.882 0-99.373-44.49-99.373-99.373v-9.462-36.408c0-2.988 2.484-5.369 5.47-5.252 21.064.822 97.689.689 136.573-41.588 2.567-2.794 7.118-2.096 8.692 1.356z" fill="#ffe0cc"/><path d="m256 295.551c-54.882 0-99.373-44.491-99.373-99.373v18.924c0 54.882 44.491 99.373 99.373 99.373s99.373-44.49 99.373-99.373v-18.924c0 54.882-44.491 99.373-99.373 99.373z" fill="#ffceb3"/><path d="m416.65 366.382c6.998-5.319 17.134-2.603 20.536 5.503 2.337 5.569 8.101 8.897 14.092 8.136 8.72-1.107 16.14 6.313 15.033 15.033-.76 5.992 2.567 11.755 8.136 14.092 8.105 3.402 10.821 13.537 5.503 20.536-3.198 4.208-3.597 9.829-1.199 14.39.343.652 3.802 9.555-4.303 12.956-5.569 2.337-8.897 8.101-8.136 14.093 1.107 8.72-6.313 16.14-15.033 15.033-5.992-.76-11.755 2.567-14.092 8.136-3.402 8.105-13.537 10.821-20.536 5.503-4.809-3.654-11.464-3.654-16.273 0-6.998 5.319-17.134 2.603-20.536-5.503-2.337-5.569-8.101-8.897-14.092-8.136-8.72 1.107-16.14-6.313-15.033-15.033.76-5.992-2.567-11.755-8.136-14.093-8.105-3.402-4.802-12.064-4.507-12.583 2.622-4.624 2.29-10.44-.995-14.763-5.319-6.998-2.603-17.134 5.502-20.536 5.569-2.337 8.897-8.101 8.136-14.092-1.107-8.72 6.313-16.14 15.033-15.033 5.992.76 11.755-2.567 14.092-8.136 3.401-8.105 13.537-10.821 20.536-5.503 4.808 3.654 11.463 3.654 16.272 0z" fill="#ff5876"/><g><g><path d="m478.965 444.44c-1.232 1.293-2.736 2.379-4.517 3.126-5.569 2.337-8.897 8.101-8.136 14.093 1.107 8.72-6.313 16.14-15.033 15.033-5.992-.76-11.755 2.567-14.092 8.136-3.402 8.105-13.537 10.821-20.536 5.503-4.809-3.655-11.464-3.655-16.273 0-6.998 5.318-17.134 2.603-20.536-5.503-2.337-5.569-8.101-8.897-14.092-8.136-8.72 1.107-16.14-6.313-15.033-15.033.76-5.992-2.567-11.755-8.136-14.093-1.781-.747-3.284-1.833-4.517-3.126-.295.52-.616 1.029-.986 1.515-5.319 6.998-2.603 17.134 5.502 20.536 5.569 2.337 8.897 8.101 8.136 14.092-1.107 8.72 6.313 16.14 15.033 15.033 5.992-.76 11.755 2.567 14.092 8.136 3.401 8.105 13.537 10.821 20.536 5.503 4.809-3.655 11.464-3.655 16.273 0 6.998 5.318 17.134 2.603 20.536-5.503 2.337-5.569 8.101-8.897 14.092-8.136 8.72 1.107 16.14-6.313 15.033-15.033-.76-5.992 2.567-11.755 8.136-14.092 8.105-3.401 10.821-13.537 5.503-20.536-.369-.486-.691-.995-.985-1.515z" fill="#e6485d"/></g></g></g><g><path d="m207.754 176.51c-4.363 0-7.9 3.537-7.9 7.9v22.321c0 4.364 3.537 7.9 7.9 7.9s7.9-3.537 7.9-7.9v-22.321c0-4.363-3.537-7.9-7.9-7.9z" fill="#2d4456"/><path d="m304.246 214.631c4.363 0 7.9-3.537 7.9-7.9v-22.321c0-4.364-3.537-7.9-7.9-7.9s-7.9 3.537-7.9 7.9v22.321c0 4.364 3.537 7.9 7.9 7.9z" fill="#2d4456"/><g fill="#ff5876"><path d="m253.605 413.815c4.6 0 8.575 3.272 9.451 7.78.832 4.282 4.978 7.078 9.262 6.248 4.283-.832 7.08-4.979 6.248-9.262-2.316-11.917-12.813-20.567-24.961-20.567-14.025 0-25.435 11.41-25.435 25.435v29.458c0 14.025 11.41 25.436 25.435 25.436 12.147 0 22.645-8.65 24.961-20.568.832-4.283-1.965-8.43-6.248-9.262-4.276-.827-8.43 1.965-9.262 6.248-.876 4.509-4.851 7.781-9.451 7.781-5.313 0-9.635-4.323-9.635-9.635v-29.458c0-5.312 4.322-9.634 9.635-9.634z"/><path d="m285.09 249.296-.001-.001c.462-1.004.727-2.118.727-3.296 0-4.363-3.537-7.9-7.9-7.9-3.342 0-6.193 2.078-7.347 5.01l-.013-.006c-.333.703-3.572 6.857-14.556 6.857s-14.222-6.155-14.555-6.857l-.013.006c-1.154-2.932-4.005-5.01-7.347-5.01-4.363 0-7.9 3.537-7.9 7.9 0 1.178.265 2.292.727 3.296l-.001.001c2.518 6.116 11.479 16.466 29.09 16.466s26.571-10.35 29.089-16.466z"/></g></g></g></svg>